<svg width="21" height="18" viewBox="0 0 21 18" fill="none" xmlns="http://www.w3.org/2000/svg">
<path fill-rule="evenodd" clip-rule="evenodd" d="M1.43076 7.37858C7.0176 4.95975 10.743 3.36512 12.6071 2.59467C17.9293 0.394879 19.0352 0.0127526 19.756 0.000134537C19.9145 -0.00264066 20.269 0.0364027 20.4986 0.221549C20.6925 0.377884 20.7458 0.589069 20.7713 0.737291C20.7969 0.885513 20.8287 1.22317 20.8034 1.487C20.515 4.49834 19.267 11.8061 18.6321 15.1788C18.3635 16.606 17.8345 17.0845 17.3224 17.1313C16.2095 17.2331 15.3644 16.4004 14.2865 15.6983C12.5998 14.5996 11.6469 13.9156 10.0096 12.8434C8.11749 11.6044 9.34408 10.9234 10.4224 9.81039C10.7046 9.51912 15.6081 5.08696 15.7031 4.68489C15.7149 4.63461 15.7259 4.44717 15.6139 4.3482C15.5018 4.24922 15.3364 4.28307 15.2171 4.30998C15.0479 4.34814 12.3534 6.11797 7.13339 9.61948C6.36855 10.1414 5.67578 10.3957 5.05508 10.3823C4.37081 10.3677 3.05454 9.99787 2.07604 9.6818C0.875858 9.29411 -0.0780193 9.08914 0.00504206 8.43074C0.0483055 8.0878 0.523545 7.73708 1.43076 7.37858Z" fill="url(#paint0_radial_120_1257)"/>
<defs>
<radialGradient id="paint0_radial_120_1257" cx="0" cy="0" r="1" gradientTransform="matrix(-2.33134e-06 23.4244 -22.0686 -2.67471e-05 10.4063 1.44282e-06)" gradientUnits="userSpaceOnUse">
<stop stop-color="#FFC400"/>
<stop offset="1" stop-color="#FF9900"/>
</radialGradient>
</defs>
</svg>
